REM GENRE Rock
REM DATE 2005
REM DISCID 7409960A
REM COMMENT "ExactAudioCopy v0.95b3"
PERFORMER "Brant Bjork & The Bros"
TITLE "Saved By Magic (Disc 1)"
FILE "01. Brant Bjork & The Bros – Magic vs. Technology.wav" WAVE
  TRACK 01 AUDIO
    TITLE "Magic vs. Technology"
    PERFORMER "Brant Bjork & The Bros"
    INDEX 01 00:00:00
  TRACK 02 AUDIO
    TITLE "Get Into It"
    PERFORMER "Brant Bjork & The Bros"
    INDEX 00 02:02:37
FILE "02. Brant Bjork & The Bros – Get Into It.wav" WAVE
    INDEX 01 00:00:00
  TRACK 03 AUDIO
    TITLE "Kiss Away"
    PERFORMER "Brant Bjork & The Bros"
    INDEX 00 05:46:36
FILE "03. Brant Bjork & The Bros – Kiss Away.wav" WAVE
    INDEX 01 00:00:00
  TRACK 04 AUDIO
    TITLE "'73"
    PERFORMER "Brant Bjork & The Bros"
    INDEX 00 05:33:60
FILE "04. Brant Bjork & The Bros – '73.wav" WAVE
    INDEX 01 00:00:00
  TRACK 05 AUDIO
    TITLE "Lil' Bro"
    PERFORMER "Brant Bjork & The Bros"
    INDEX 00 03:49:66
FILE "05. Brant Bjork & The Bros – Lil' Bro.wav" WAVE
    INDEX 01 00:00:00
  TRACK 06 AUDIO
    TITLE "Moda"
    PERFORMER "Brant Bjork & The Bros"
    INDEX 00 03:14:56
FILE "06. Brant Bjork & The Bros – Moda.wav" WAVE
    INDEX 01 00:00:00
  TRACK 07 AUDIO
    TITLE "Dr. Aura"
    PERFORMER "Brant Bjork & The Bros"
    INDEX 00 05:18:28
FILE "07. Brant Bjork & The Bros – Dr. Aura.wav" WAVE
    INDEX 01 00:00:00
  TRACK 08 AUDIO
    TITLE "Gonna Make The Pony Trap"
    PERFORMER "Brant Bjork & The Bros"
    INDEX 00 03:07:69
FILE "08. Brant Bjork & The Bros – Gonna Make The Pony Trap.wav" WAVE
    INDEX 01 00:00:00
  TRACK 09 AUDIO
    TITLE "Sweet Maria's Dreams"
    PERFORMER "Brant Bjork & The Bros"
    INDEX 00 03:39:32
FILE "09. Brant Bjork & The Bros – Sweet Maria's Dreams.wav" WAVE
    INDEX 01 00:00:00
  TRACK 10 AUDIO
    TITLE "Inside Of You"
    PERFORMER "Brant Bjork & The Bros"
    INDEX 00 04:47:65
FILE "10. Brant Bjork & The Bros – Inside Of You.wav" WAVE
    INDEX 01 00:00:00
